<?xml version="1.0" encoding="UTF-8" standalone="no"?>
<!DOCTYPE svg PUBLIC "-//W3C//DTD SVG 1.1//EN"
 "http://www.w3.org/Graphics/SVG/1.1/DTD/svg11.dtd">
<!-- Generated by graphviz version 2.40.1 (20161225.0304)
 -->
<!-- Title: %3 Pages: 1 -->
<svg width="1847pt" height="692pt"
 viewBox="0.00 0.00 1846.81 692.00" xmlns="http://www.w3.org/2000/svg" xmlns:xlink="http://www.w3.org/1999/xlink">
<g id="graph0" class="graph" transform="scale(1 1) rotate(0) translate(4 688)">
<title>%3</title>
<polygon fill="#ffffff" stroke="transparent" points="-4,4 -4,-688 1842.8109,-688 1842.8109,4 -4,4"/>
<!-- [root] aws_cloudtrail.s3 -->
<g id="node1" class="node">
<title>[root] aws_cloudtrail.s3</title>
<polygon fill="none" stroke="#000000" points="388.2056,-468 273.4661,-468 273.4661,-432 388.2056,-432 388.2056,-468"/>
<text text-anchor="middle" x="330.8358" y="-445.8" font-family="Times,serif" font-size="14.00" fill="#000000">aws_cloudtrail.s3</text>
</g>
<!-- [root] aws_s3_bucket_policy.attach&#45;allow&#45;put&#45;object -->
<g id="node11" class="node">
<title>[root] aws_s3_bucket_policy.attach&#45;allow&#45;put&#45;object</title>
<polygon fill="none" stroke="#000000" points="635.0655,-396 358.6062,-396 358.6062,-360 635.0655,-360 635.0655,-396"/>
<text text-anchor="middle" x="496.8358" y="-373.8" font-family="Times,serif" font-size="14.00" fill="#000000">aws_s3_bucket_policy.attach&#45;allow&#45;put&#45;object</text>
</g>
<!-- [root] aws_cloudtrail.s3&#45;&gt;[root] aws_s3_bucket_policy.attach&#45;allow&#45;put&#45;object -->
<g id="edge1" class="edge">
<title>[root] aws_cloudtrail.s3&#45;&gt;[root] aws_s3_bucket_policy.attach&#45;allow&#45;put&#45;object</title>
<path fill="none" stroke="#000000" d="M372.7246,-431.8314C394.9262,-422.2018 422.378,-410.295 445.8142,-400.1299"/>
<polygon fill="#000000" stroke="#000000" points="447.4668,-403.2282 455.2482,-396.038 444.6813,-396.8062 447.4668,-403.2282"/>
</g>
<!-- [root] var.cloudwatch_enabled -->
<g id="node19" class="node">
<title>[root] var.cloudwatch_enabled</title>
<ellipse fill="none" stroke="#000000" cx="784.8358" cy="-162" rx="118.3088" ry="18"/>
<text text-anchor="middle" x="784.8358" y="-157.8" font-family="Times,serif" font-size="14.00" fill="#000000">[root] var.cloudwatch_enabled</text>
</g>
<!-- [root] aws_cloudtrail.s3&#45;&gt;[root] var.cloudwatch_enabled -->
<g id="edge2" class="edge">
<title>[root] aws_cloudtrail.s3&#45;&gt;[root] var.cloudwatch_enabled</title>
<path fill="none" stroke="#000000" d="M329.0666,-431.8874C328.153,-411.3276 330.1992,-378.2804 349.8358,-360 435.8659,-279.9117 514.1445,-389.3583 611.8358,-324 658.0223,-293.1 634.1584,-253.8596 674.8358,-216 689.7548,-202.1145 708.9123,-191.0593 727.0469,-182.6605"/>
<polygon fill="#000000" stroke="#000000" points="728.6858,-185.7625 736.409,-178.5098 725.8486,-179.3633 728.6858,-185.7625"/>
</g>
<!-- [root] aws_cloudtrail.s3&#45;cloudwatch -->
<g id="node2" class="node">
<title>[root] aws_cloudtrail.s3&#45;cloudwatch</title>
<polygon fill="none" stroke="#000000" points="589.3988,-468 406.2728,-468 406.2728,-432 589.3988,-432 589.3988,-468"/>
<text text-anchor="middle" x="497.8358" y="-445.8" font-family="Times,serif" font-size="14.00" fill="#000000">aws_cloudtrail.s3&#45;cloudwatch</text>
</g>
<!-- [root] aws_cloudwatch_log_group.cloudwatch -->
<g id="node3" class="node">
<title>[root] aws_cloudwatch_log_group.cloudwatch</title>
<polygon fill="none" stroke="#000000" points="1041.7226,-324 799.9491,-324 799.9491,-288 1041.7226,-288 1041.7226,-324"/>
<text text-anchor="middle" x="920.8358" y="-301.8" font-family="Times,serif" font-size="14.00" fill="#000000">aws_cloudwatch_log_group.cloudwatch</text>
</g>
<!-- [root] aws_cloudtrail.s3&#45;cloudwatch&#45;&gt;[root] aws_cloudwatch_log_group.cloudwatch -->
<g id="edge3" class="edge">
<title>[root] aws_cloudtrail.s3&#45;cloudwatch&#45;&gt;[root] aws_cloudwatch_log_group.cloudwatch</title>
<path fill="none" stroke="#000000" d="M561.0411,-431.8973C587.5488,-422.9842 618.1211,-410.9165 643.8358,-396 665.3957,-383.4937 664.5233,-371.1079 686.8358,-360 718.5979,-344.1879 755.101,-332.9211 789.6834,-324.9251"/>
<polygon fill="#000000" stroke="#000000" points="790.8654,-328.2474 799.8619,-322.6515 789.3394,-321.4157 790.8654,-328.2474"/>
</g>
<!-- [root] aws_iam_role.cloudwatch -->
<g id="node7" class="node">
<title>[root] aws_iam_role.cloudwatch</title>
<polygon fill="none" stroke="#000000" points="1539.8989,-324 1377.7727,-324 1377.7727,-288 1539.8989,-288 1539.8989,-324"/>
<text text-anchor="middle" x="1458.8358" y="-301.8" font-family="Times,serif" font-size="14.00" fill="#000000">aws_iam_role.cloudwatch</text>
</g>
<!-- [root] aws_cloudtrail.s3&#45;cloudwatch&#45;&gt;[root] aws_iam_role.cloudwatch -->
<g id="edge4" class="edge">
<title>[root] aws_cloudtrail.s3&#45;cloudwatch&#45;&gt;[root] aws_iam_role.cloudwatch</title>
<path fill="none" stroke="#000000" d="M566.4721,-431.9289C600.6179,-422.3331 642.2975,-409.7014 678.8358,-396 714.9641,-382.4524 720.4719,-369.6294 757.8358,-360 870.6447,-330.9269 1204.9483,-315.1875 1367.7292,-309.0613"/>
<polygon fill="#000000" stroke="#000000" points="1367.8618,-312.5588 1377.7246,-308.6891 1367.6012,-305.5637 1367.8618,-312.5588"/>
</g>
<!-- [root] aws_cloudtrail.s3&#45;cloudwatch&#45;&gt;[root] aws_s3_bucket_policy.attach&#45;allow&#45;put&#45;object -->
<g id="edge5" class="edge">
<title>[root] aws_cloudtrail.s3&#45;cloudwatch&#45;&gt;[root] aws_s3_bucket_policy.attach&#45;allow&#45;put&#45;object</title>
<path fill="none" stroke="#000000" d="M497.5835,-431.8314C497.4765,-424.131 497.3494,-414.9743 497.2305,-406.4166"/>
<polygon fill="#000000" stroke="#000000" points="500.7302,-406.3637 497.0916,-396.4133 493.7309,-406.4609 500.7302,-406.3637"/>
</g>
<!-- [root] provider.aws -->
<g id="node18" class="node">
<title>[root] provider.aws</title>
<polygon fill="none" stroke="#000000" points="1288.8358,-108 1210.2275,-90 1288.8358,-72 1367.4442,-90 1288.8358,-108"/>
<text text-anchor="middle" x="1288.8358" y="-85.8" font-family="Times,serif" font-size="14.00" fill="#000000">provider.aws</text>
</g>
<!-- [root] aws_cloudwatch_log_group.cloudwatch&#45;&gt;[root] provider.aws -->
<g id="edge7" class="edge">
<title>[root] aws_cloudwatch_log_group.cloudwatch&#45;&gt;[root] provider.aws</title>
<path fill="none" stroke="#000000" d="M799.8127,-291.6738C747.1511,-283.0388 693.26,-270.1357 674.8358,-252 640.2068,-217.9131 624.6327,-179.4773 657.8358,-144 699.1532,-99.8527 1140.9119,-116.0771 1200.8358,-108 1213.64,-106.2741 1227.3736,-103.78 1240.0939,-101.1957"/>
<polygon fill="#000000" stroke="#000000" points="1240.9686,-104.5886 1250.041,-99.1168 1239.5365,-97.7367 1240.9686,-104.5886"/>
</g>
<!-- [root] aws_cloudwatch_log_group.cloudwatch&#45;&gt;[root] var.cloudwatch_enabled -->
<g id="edge8" class="edge">
<title>[root] aws_cloudwatch_log_group.cloudwatch&#45;&gt;[root] var.cloudwatch_enabled</title>
<path fill="none" stroke="#000000" d="M921.3219,-287.7724C920.905,-268.0242 917.3784,-236.5873 900.8358,-216 888.6315,-200.8116 871.1729,-189.6919 853.4932,-181.6359"/>
<polygon fill="#000000" stroke="#000000" points="854.8259,-178.3993 844.2544,-177.697 852.0806,-184.8385 854.8259,-178.3993"/>
</g>
<!-- [root] local.default_name -->
<g id="node20" class="node">
<title>[root] local.default_name</title>
<ellipse fill="none" stroke="#000000" cx="1738.8358" cy="-90" rx="99.9502" ry="18"/>
<text text-anchor="middle" x="1738.8358" y="-85.8" font-family="Times,serif" font-size="14.00" fill="#000000">[root] local.default_name</text>
</g>
<!-- [root] aws_cloudwatch_log_group.cloudwatch&#45;&gt;[root] local.default_name -->
<g id="edge6" class="edge">
<title>[root] aws_cloudwatch_log_group.cloudwatch&#45;&gt;[root] local.default_name</title>
<path fill="none" stroke="#000000" d="M1041.9275,-301.7717C1258.6443,-293.6521 1692.6001,-274.6585 1716.8358,-252 1753.1615,-218.0383 1750.0697,-154.6829 1744.4998,-118.075"/>
<polygon fill="#000000" stroke="#000000" points="1747.9269,-117.3491 1742.8135,-108.07 1741.0243,-118.5126 1747.9269,-117.3491"/>
</g>
<!-- [root] var.module_enabled -->
<g id="node21" class="node">
<title>[root] var.module_enabled</title>
<ellipse fill="none" stroke="#000000" cx="1501.8358" cy="-90" rx="103.8351" ry="18"/>
<text text-anchor="middle" x="1501.8358" y="-85.8" font-family="Times,serif" font-size="14.00" fill="#000000">[root] var.module_enabled</text>
</g>
<!-- [root] aws_cloudwatch_log_group.cloudwatch&#45;&gt;[root] var.module_enabled -->
<g id="edge9" class="edge">
<title>[root] aws_cloudwatch_log_group.cloudwatch&#45;&gt;[root] var.module_enabled</title>
<path fill="none" stroke="#000000" d="M1042.0953,-301.853C1254.8041,-293.9839 1674.8712,-275.5463 1696.8358,-252 1750.5304,-194.4391 1634.0214,-138.2356 1558.9214,-109.5878"/>
<polygon fill="#000000" stroke="#000000" points="1560.1214,-106.2998 1549.5291,-106.0653 1557.6632,-112.854 1560.1214,-106.2998"/>
</g>
<!-- [root] var.retention_period -->
<g id="node22" class="node">
<title>[root] var.retention_period</title>
<ellipse fill="none" stroke="#000000" cx="787.8358" cy="-234" rx="103.8351" ry="18"/>
<text text-anchor="middle" x="787.8358" y="-229.8" font-family="Times,serif" font-size="14.00" fill="#000000">[root] var.retention_period</text>
</g>
<!-- [root] aws_cloudwatch_log_group.cloudwatch&#45;&gt;[root] var.retention_period -->
<g id="edge10" class="edge">
<title>[root] aws_cloudwatch_log_group.cloudwatch&#45;&gt;[root] var.retention_period</title>
<path fill="none" stroke="#000000" d="M887.2743,-287.8314C869.4187,-278.1652 847.3245,-266.2044 828.5006,-256.014"/>
<polygon fill="#000000" stroke="#000000" points="830.0157,-252.8543 819.5553,-251.1715 826.6832,-259.0101 830.0157,-252.8543"/>
</g>
<!-- [root] aws_cloudwatch_log_subscription_filter.cloudwatch -->
<g id="node4" class="node">
<title>[root] aws_cloudwatch_log_subscription_filter.cloudwatch</title>
<polygon fill="none" stroke="#000000" points="1298.1778,-468 987.4938,-468 987.4938,-432 1298.1778,-432 1298.1778,-468"/>
<text text-anchor="middle" x="1142.8358" y="-445.8" font-family="Times,serif" font-size="14.00" fill="#000000">aws_cloudwatch_log_subscription_filter.cloudwatch</text>
</g>
<!-- [root] aws_cloudwatch_log_subscription_filter.cloudwatch&#45;&gt;[root] aws_cloudwatch_log_group.cloudwatch -->
<g id="edge11" class="edge">
<title>[root] aws_cloudwatch_log_subscription_filter.cloudwatch&#45;&gt;[root] aws_cloudwatch_log_group.cloudwatch</title>
<path fill="none" stroke="#000000" d="M1135.7969,-431.8076C1127.0416,-411.4883 1110.2123,-378.9679 1085.8358,-360 1067.4151,-345.6665 1045.041,-335.0634 1022.7908,-327.2455"/>
<polygon fill="#000000" stroke="#000000" points="1023.8682,-323.9154 1013.2744,-324.0628 1021.6479,-330.5539 1023.8682,-323.9154"/>
</g>
<!-- [root] var.log_group_subscription_target_arn -->
<g id="node23" class="node">
<title>[root] var.log_group_subscription_target_arn</title>
<ellipse fill="none" stroke="#000000" cx="1090.8358" cy="-162" rx="169.683" ry="18"/>
<text text-anchor="middle" x="1090.8358" y="-157.8" font-family="Times,serif" font-size="14.00" fill="#000000">[root] var.log_group_subscription_target_arn</text>
</g>
<!-- [root] aws_cloudwatch_log_subscription_filter.cloudwatch&#45;&gt;[root] var.log_group_subscription_target_arn -->
<g id="edge12" class="edge">
<title>[root] aws_cloudwatch_log_subscription_filter.cloudwatch&#45;&gt;[root] var.log_group_subscription_target_arn</title>
<path fill="none" stroke="#000000" d="M1139.5558,-431.8443C1135.6223,-412.9916 1127.8725,-383.0821 1114.8358,-360 1093.7806,-322.7205 1084.9595,-313.8585 1050.8358,-288 1021.6857,-265.9104 996.2329,-283.007 976.8358,-252 968.3503,-238.4355 968.2798,-229.5202 976.8358,-216 986.038,-201.4587 1000.3317,-190.7565 1015.7242,-182.9067"/>
<polygon fill="#000000" stroke="#000000" points="1017.3188,-186.0246 1024.8838,-178.607 1014.3443,-179.688 1017.3188,-186.0246"/>
</g>
<!-- [root] aws_iam_policy.cloudwatch -->
<g id="node5" class="node">
<title>[root] aws_iam_policy.cloudwatch</title>
<polygon fill="none" stroke="#000000" points="1491.2167,-468 1316.4549,-468 1316.4549,-432 1491.2167,-432 1491.2167,-468"/>
<text text-anchor="middle" x="1403.8358" y="-445.8" font-family="Times,serif" font-size="14.00" fill="#000000">aws_iam_policy.cloudwatch</text>
</g>
<!-- [root] data.aws_iam_policy_document.cloudwatch -->
<g id="node14" class="node">
<title>[root] data.aws_iam_policy_document.cloudwatch</title>
<polygon fill="none" stroke="#000000" points="1435.1503,-396 1170.5213,-396 1170.5213,-360 1435.1503,-360 1435.1503,-396"/>
<text text-anchor="middle" x="1302.8358" y="-373.8" font-family="Times,serif" font-size="14.00" fill="#000000">data.aws_iam_policy_document.cloudwatch</text>
</g>
<!-- [root] aws_iam_policy.cloudwatch&#45;&gt;[root] data.aws_iam_policy_document.cloudwatch -->
<g id="edge13" class="edge">
<title>[root] aws_iam_policy.cloudwatch&#45;&gt;[root] data.aws_iam_policy_document.cloudwatch</title>
<path fill="none" stroke="#000000" d="M1378.3493,-431.8314C1365.67,-422.7927 1350.1762,-411.7476 1336.5303,-402.0198"/>
<polygon fill="#000000" stroke="#000000" points="1338.4887,-399.1176 1328.3142,-396.1628 1334.4254,-404.8176 1338.4887,-399.1176"/>
</g>
<!-- [root] aws_iam_policy.cloudwatch&#45;subscription -->
<g id="node6" class="node">
<title>[root] aws_iam_policy.cloudwatch&#45;subscription</title>
<polygon fill="none" stroke="#000000" points="1805.8202,-324 1557.8515,-324 1557.8515,-288 1805.8202,-288 1805.8202,-324"/>
<text text-anchor="middle" x="1681.8358" y="-301.8" font-family="Times,serif" font-size="14.00" fill="#000000">aws_iam_policy.cloudwatch&#45;subscription</text>
</g>
<!-- [root] data.aws_iam_policy_document.cloudwatch&#45;subscription -->
<g id="node16" class="node">
<title>[root] data.aws_iam_policy_document.cloudwatch&#45;subscription</title>
<polygon fill="none" stroke="#000000" points="1323.7538,-252 985.9179,-252 985.9179,-216 1323.7538,-216 1323.7538,-252"/>
<text text-anchor="middle" x="1154.8358" y="-229.8" font-family="Times,serif" font-size="14.00" fill="#000000">data.aws_iam_policy_document.cloudwatch&#45;subscription</text>
</g>
<!-- [root] aws_iam_policy.cloudwatch&#45;subscription&#45;&gt;[root] data.aws_iam_policy_document.cloudwatch&#45;subscription -->
<g id="edge14" class="edge">
<title>[root] aws_iam_policy.cloudwatch&#45;subscription&#45;&gt;[root] data.aws_iam_policy_document.cloudwatch&#45;subscription</title>
<path fill="none" stroke="#000000" d="M1557.6115,-289.0282C1479.5486,-278.363 1378.5998,-264.5712 1297.2945,-253.463"/>
<polygon fill="#000000" stroke="#000000" points="1297.3551,-249.9389 1286.9734,-252.0529 1296.4075,-256.8745 1297.3551,-249.9389"/>
</g>
<!-- [root] aws_iam_policy.cloudwatch&#45;subscription&#45;&gt;[root] local.default_name -->
<g id="edge15" class="edge">
<title>[root] aws_iam_policy.cloudwatch&#45;subscription&#45;&gt;[root] local.default_name</title>
<path fill="none" stroke="#000000" d="M1759.9064,-287.9684C1777.9597,-279.9827 1795.0261,-268.4977 1805.8358,-252 1832.1426,-211.8508 1826.5503,-187.3002 1805.8358,-144 1799.9789,-131.7571 1789.8418,-121.4033 1779.1998,-113.1395"/>
<polygon fill="#000000" stroke="#000000" points="1781.1806,-110.2527 1771.0258,-107.2309 1777.0798,-115.9257 1781.1806,-110.2527"/>
</g>
<!-- [root] data.aws_iam_policy_document.cloudwatch&#45;allow&#45;assume -->
<g id="node15" class="node">
<title>[root] data.aws_iam_policy_document.cloudwatch&#45;allow&#45;assume</title>
<polygon fill="none" stroke="#000000" points="1688.2922,-252 1341.3795,-252 1341.3795,-216 1688.2922,-216 1688.2922,-252"/>
<text text-anchor="middle" x="1514.8358" y="-229.8" font-family="Times,serif" font-size="14.00" fill="#000000">data.aws_iam_policy_document.cloudwatch&#45;allow&#45;assume</text>
</g>
<!-- [root] aws_iam_role.cloudwatch&#45;&gt;[root] data.aws_iam_policy_document.cloudwatch&#45;allow&#45;assume -->
<g id="edge16" class="edge">
<title>[root] aws_iam_role.cloudwatch&#45;&gt;[root] data.aws_iam_policy_document.cloudwatch&#45;allow&#45;assume</title>
<path fill="none" stroke="#000000" d="M1472.967,-287.8314C1479.4169,-279.5386 1487.1804,-269.557 1494.261,-260.4533"/>
<polygon fill="#000000" stroke="#000000" points="1497.1377,-262.4556 1500.5144,-252.4133 1491.6122,-258.158 1497.1377,-262.4556"/>
</g>
<!-- [root] aws_iam_role.cloudwatch&#45;&gt;[root] local.default_name -->
<g id="edge17" class="edge">
<title>[root] aws_iam_role.cloudwatch&#45;&gt;[root] local.default_name</title>
<path fill="none" stroke="#000000" d="M1540.2468,-289.5871C1543.1441,-289.0446 1546.0141,-288.5139 1548.8358,-288 1597.3574,-279.1625 1735.9149,-289.5966 1767.8358,-252 1800.2591,-213.8117 1774.6664,-151.9428 1755.318,-116.7438"/>
<polygon fill="#000000" stroke="#000000" points="1758.3177,-114.9386 1750.3264,-107.9823 1752.2355,-118.4037 1758.3177,-114.9386"/>
</g>
<!-- [root] aws_iam_role_policy_attachment.cloudwatch -->
<g id="node8" class="node">
<title>[root] aws_iam_role_policy_attachment.cloudwatch</title>
<polygon fill="none" stroke="#000000" points="1539.3056,-540 1266.3661,-540 1266.3661,-504 1539.3056,-504 1539.3056,-540"/>
<text text-anchor="middle" x="1402.8358" y="-517.8" font-family="Times,serif" font-size="14.00" fill="#000000">aws_iam_role_policy_attachment.cloudwatch</text>
</g>
<!-- [root] aws_iam_role_policy_attachment.cloudwatch&#45;&gt;[root] aws_iam_policy.cloudwatch -->
<g id="edge18" class="edge">
<title>[root] aws_iam_role_policy_attachment.cloudwatch&#45;&gt;[root] aws_iam_policy.cloudwatch</title>
<path fill="none" stroke="#000000" d="M1403.0882,-503.8314C1403.1951,-496.131 1403.3223,-486.9743 1403.4412,-478.4166"/>
<polygon fill="#000000" stroke="#000000" points="1406.9408,-478.4609 1403.5801,-468.4133 1399.9415,-478.3637 1406.9408,-478.4609"/>
</g>
<!-- [root] aws_iam_role_policy_attachment.cloudwatch&#45;subscription -->
<g id="node9" class="node">
<title>[root] aws_iam_role_policy_attachment.cloudwatch&#45;subscription</title>
<polygon fill="none" stroke="#000000" points="1798.9091,-396 1452.7626,-396 1452.7626,-360 1798.9091,-360 1798.9091,-396"/>
<text text-anchor="middle" x="1625.8358" y="-373.8" font-family="Times,serif" font-size="14.00" fill="#000000">aws_iam_role_policy_attachment.cloudwatch&#45;subscription</text>
</g>
<!-- [root] aws_iam_role_policy_attachment.cloudwatch&#45;subscription&#45;&gt;[root] aws_iam_policy.cloudwatch&#45;subscription -->
<g id="edge19" class="edge">
<title>[root] aws_iam_role_policy_attachment.cloudwatch&#45;subscription&#45;&gt;[root] aws_iam_policy.cloudwatch&#45;subscription</title>
<path fill="none" stroke="#000000" d="M1639.967,-359.8314C1646.4169,-351.5386 1654.1804,-341.557 1661.261,-332.4533"/>
<polygon fill="#000000" stroke="#000000" points="1664.1377,-334.4556 1667.5144,-324.4133 1658.6122,-330.158 1664.1377,-334.4556"/>
</g>
<!-- [root] aws_iam_role_policy_attachment.cloudwatch&#45;subscription&#45;&gt;[root] aws_iam_role.cloudwatch -->
<g id="edge20" class="edge">
<title>[root] aws_iam_role_policy_attachment.cloudwatch&#45;subscription&#45;&gt;[root] aws_iam_role.cloudwatch</title>
<path fill="none" stroke="#000000" d="M1583.6947,-359.8314C1561.3594,-350.2018 1533.7422,-338.295 1510.1648,-328.1299"/>
<polygon fill="#000000" stroke="#000000" points="1511.2426,-324.7831 1500.6739,-324.038 1508.4711,-331.2112 1511.2426,-324.7831"/>
</g>
<!-- [root] aws_s3_bucket.this -->
<g id="node10" class="node">
<title>[root] aws_s3_bucket.this</title>
<polygon fill="none" stroke="#000000" points="589.6017,-180 464.0699,-180 464.0699,-144 589.6017,-144 589.6017,-180"/>
<text text-anchor="middle" x="526.8358" y="-157.8" font-family="Times,serif" font-size="14.00" fill="#000000">aws_s3_bucket.this</text>
</g>
<!-- [root] aws_s3_bucket.this&#45;&gt;[root] provider.aws -->
<g id="edge23" class="edge">
<title>[root] aws_s3_bucket.this&#45;&gt;[root] provider.aws</title>
<path fill="none" stroke="#000000" d="M589.7019,-146.3891C594.467,-145.4867 599.2171,-144.6741 603.8358,-144 866.8641,-105.6087 937.2979,-142.7211 1200.8358,-108 1213.6451,-106.3124 1227.3805,-103.8318 1240.1009,-101.2482"/>
<polygon fill="#000000" stroke="#000000" points="1240.9764,-104.6409 1250.0478,-99.1673 1239.543,-97.7892 1240.9764,-104.6409"/>
</g>
<!-- [root] aws_s3_bucket.this&#45;&gt;[root] local.default_name -->
<g id="edge21" class="edge">
<title>[root] aws_s3_bucket.this&#45;&gt;[root] local.default_name</title>
<path fill="none" stroke="#000000" d="M589.661,-152.0826C611.2225,-149.0213 635.5378,-145.9465 657.8358,-144 1081.8574,-106.9849 1190.958,-146.6272 1614.8358,-108 1627.6969,-106.828 1641.2616,-105.2315 1654.5118,-103.4705"/>
<polygon fill="#000000" stroke="#000000" points="1655.1324,-106.9184 1664.5662,-102.0961 1654.1842,-99.9829 1655.1324,-106.9184"/>
</g>
<!-- [root] aws_s3_bucket.this&#45;&gt;[root] var.module_enabled -->
<g id="edge24" class="edge">
<title>[root] aws_s3_bucket.this&#45;&gt;[root] var.module_enabled</title>
<path fill="none" stroke="#000000" d="M589.6754,-152.2419C611.2381,-149.1928 635.5503,-146.085 657.8358,-144 976.4004,-114.195 1058.3693,-138.835 1376.8358,-108 1389.148,-106.8079 1402.1045,-105.267 1414.8233,-103.5889"/>
<polygon fill="#000000" stroke="#000000" points="1415.5154,-107.0273 1424.9557,-102.2178 1414.5766,-100.0905 1415.5154,-107.0273"/>
</g>
<!-- [root] local.default_tags -->
<g id="node24" class="node">
<title>[root] local.default_tags</title>
<ellipse fill="none" stroke="#000000" cx="1096.8358" cy="-90" rx="95.1395" ry="18"/>
<text text-anchor="middle" x="1096.8358" y="-85.8" font-family="Times,serif" font-size="14.00" fill="#000000">[root] local.default_tags</text>
</g>
<!-- [root] aws_s3_bucket.this&#45;&gt;[root] local.default_tags -->
<g id="edge22" class="edge">
<title>[root] aws_s3_bucket.this&#45;&gt;[root] local.default_tags</title>
<path fill="none" stroke="#000000" d="M589.7422,-146.6432C594.498,-145.6821 599.2349,-144.7868 603.8358,-144 739.4271,-120.8127 897.7886,-105.5353 997.691,-97.3258"/>
<polygon fill="#000000" stroke="#000000" points="998.0909,-100.8049 1007.7739,-96.5049 997.5228,-93.828 998.0909,-100.8049"/>
</g>
<!-- [root] data.aws_iam_policy_document.allow&#45;put&#45;object -->
<g id="node13" class="node">
<title>[root] data.aws_iam_policy_document.allow&#45;put&#45;object</title>
<polygon fill="none" stroke="#000000" points="603.1435,-324 310.5281,-324 310.5281,-288 603.1435,-288 603.1435,-324"/>
<text text-anchor="middle" x="456.8358" y="-301.8" font-family="Times,serif" font-size="14.00" fill="#000000">data.aws_iam_policy_document.allow&#45;put&#45;object</text>
</g>
<!-- [root] aws_s3_bucket_policy.attach&#45;allow&#45;put&#45;object&#45;&gt;[root] data.aws_iam_policy_document.allow&#45;put&#45;object -->
<g id="edge25" class="edge">
<title>[root] aws_s3_bucket_policy.attach&#45;allow&#45;put&#45;object&#45;&gt;[root] data.aws_iam_policy_document.allow&#45;put&#45;object</title>
<path fill="none" stroke="#000000" d="M486.7421,-359.8314C482.2761,-351.7925 476.9284,-342.1666 471.9979,-333.2918"/>
<polygon fill="#000000" stroke="#000000" points="474.9815,-331.4551 467.0654,-324.4133 468.8623,-334.8546 474.9815,-331.4551"/>
</g>
<!-- [root] data.aws_iam_policy_document.allow&#45;get&#45;bucket&#45;acl -->
<g id="node12" class="node">
<title>[root] data.aws_iam_policy_document.allow&#45;get&#45;bucket&#45;acl</title>
<polygon fill="none" stroke="#000000" points="589.9472,-252 273.7245,-252 273.7245,-216 589.9472,-216 589.9472,-252"/>
<text text-anchor="middle" x="431.8358" y="-229.8" font-family="Times,serif" font-size="14.00" fill="#000000">data.aws_iam_policy_document.allow&#45;get&#45;bucket&#45;acl</text>
</g>
<!-- [root] data.aws_iam_policy_document.allow&#45;get&#45;bucket&#45;acl&#45;&gt;[root] aws_s3_bucket.this -->
<g id="edge26" class="edge">
<title>[root] data.aws_iam_policy_document.allow&#45;get&#45;bucket&#45;acl&#45;&gt;[root] aws_s3_bucket.this</title>
<path fill="none" stroke="#000000" d="M455.8083,-215.8314C467.6219,-206.8779 482.033,-195.9558 494.7793,-186.2955"/>
<polygon fill="#000000" stroke="#000000" points="497.0154,-188.9925 502.871,-180.1628 492.7872,-183.4137 497.0154,-188.9925"/>
</g>
<!-- [root] data.aws_iam_policy_document.allow&#45;put&#45;object&#45;&gt;[root] data.aws_iam_policy_document.allow&#45;get&#45;bucket&#45;acl -->
<g id="edge27" class="edge">
<title>[root] data.aws_iam_policy_document.allow&#45;put&#45;object&#45;&gt;[root] data.aws_iam_policy_document.allow&#45;get&#45;bucket&#45;acl</title>
<path fill="none" stroke="#000000" d="M450.5273,-287.8314C447.8241,-280.0463 444.6042,-270.7729 441.6048,-262.1347"/>
<polygon fill="#000000" stroke="#000000" points="444.8159,-260.7119 438.2293,-252.4133 438.2031,-263.0081 444.8159,-260.7119"/>
</g>
<!-- [root] data.aws_iam_policy_document.cloudwatch&#45;&gt;[root] aws_cloudwatch_log_group.cloudwatch -->
<g id="edge28" class="edge">
<title>[root] data.aws_iam_policy_document.cloudwatch&#45;&gt;[root] aws_cloudwatch_log_group.cloudwatch</title>
<path fill="none" stroke="#000000" d="M1206.9342,-359.9243C1151.9972,-349.5697 1082.968,-336.5589 1026.4792,-325.9118"/>
<polygon fill="#000000" stroke="#000000" points="1026.9208,-322.4335 1016.4456,-324.0207 1025.6242,-329.3124 1026.9208,-322.4335"/>
</g>
<!-- [root] data.aws_iam_policy_document.cloudwatch&#45;&gt;[root] aws_iam_role.cloudwatch -->
<g id="edge29" class="edge">
<title>[root] data.aws_iam_policy_document.cloudwatch&#45;&gt;[root] aws_iam_role.cloudwatch</title>
<path fill="none" stroke="#000000" d="M1342.2012,-359.8314C1362.9726,-350.2446 1388.6342,-338.4008 1410.5939,-328.2655"/>
<polygon fill="#000000" stroke="#000000" points="1412.1406,-331.4065 1419.7535,-324.038 1409.2072,-325.0508 1412.1406,-331.4065"/>
</g>
<!-- [root] data.aws_region.this -->
<g id="node17" class="node">
<title>[root] data.aws_region.this</title>
<polygon fill="none" stroke="#000000" points="1448.4189,-180 1317.2528,-180 1317.2528,-144 1448.4189,-144 1448.4189,-180"/>
<text text-anchor="middle" x="1382.8358" y="-157.8" font-family="Times,serif" font-size="14.00" fill="#000000">data.aws_region.this</text>
</g>
<!-- [root] data.aws_iam_policy_document.cloudwatch&#45;allow&#45;assume&#45;&gt;[root] data.aws_region.this -->
<g id="edge30" class="edge">
<title>[root] data.aws_iam_policy_document.cloudwatch&#45;allow&#45;assume&#45;&gt;[root] data.aws_region.this</title>
<path fill="none" stroke="#000000" d="M1481.5267,-215.8314C1464.4086,-206.4942 1443.3652,-195.016 1425.1137,-185.0606"/>
<polygon fill="#000000" stroke="#000000" points="1426.5893,-181.8788 1416.1343,-180.1628 1423.2373,-188.024 1426.5893,-181.8788"/>
</g>
<!-- [root] data.aws_iam_policy_document.cloudwatch&#45;allow&#45;assume&#45;&gt;[root] var.cloudwatch_enabled -->
<g id="edge31" class="edge">
<title>[root] data.aws_iam_policy_document.cloudwatch&#45;allow&#45;assume&#45;&gt;[root] var.cloudwatch_enabled</title>
<path fill="none" stroke="#000000" d="M1341.4418,-216.7979C1338.5518,-216.5285 1335.6814,-216.2624 1332.8358,-216 1145.8351,-198.7582 1098.4311,-201.1847 911.8358,-180 901.3325,-178.8075 890.3578,-177.4384 879.4476,-175.9991"/>
<polygon fill="#000000" stroke="#000000" points="879.8379,-172.5202 869.4616,-174.6607 878.9079,-179.4582 879.8379,-172.5202"/>
</g>
<!-- [root] data.aws_iam_policy_document.cloudwatch&#45;allow&#45;assume&#45;&gt;[root] var.module_enabled -->
<g id="edge32" class="edge">
<title>[root] data.aws_iam_policy_document.cloudwatch&#45;allow&#45;assume&#45;&gt;[root] var.module_enabled</title>
<path fill="none" stroke="#000000" d="M1513.1894,-215.7623C1510.972,-191.201 1507.004,-147.2474 1504.3956,-118.3541"/>
<polygon fill="#000000" stroke="#000000" points="1507.854,-117.7344 1503.4689,-108.0896 1500.8823,-118.3638 1507.854,-117.7344"/>
</g>
<!-- [root] data.aws_iam_policy_document.cloudwatch&#45;subscription&#45;&gt;[root] provider.aws -->
<g id="edge33" class="edge">
<title>[root] data.aws_iam_policy_document.cloudwatch&#45;subscription&#45;&gt;[root] provider.aws</title>
<path fill="none" stroke="#000000" d="M1219.541,-215.8893C1238.2384,-207.7264 1257.0304,-196.1658 1269.8358,-180 1283.7242,-162.4671 1288.1028,-137.1788 1289.2203,-117.8697"/>
<polygon fill="#000000" stroke="#000000" points="1292.7193,-117.953 1289.5453,-107.8448 1285.723,-117.7261 1292.7193,-117.953"/>
</g>
<!-- [root] data.aws_iam_policy_document.cloudwatch&#45;subscription&#45;&gt;[root] var.cloudwatch_enabled -->
<g id="edge34" class="edge">
<title>[root] data.aws_iam_policy_document.cloudwatch&#45;subscription&#45;&gt;[root] var.cloudwatch_enabled</title>
<path fill="none" stroke="#000000" d="M1061.9468,-215.9243C1002.3745,-204.3318 925.6941,-189.4103 868.103,-178.2033"/>
<polygon fill="#000000" stroke="#000000" points="868.4281,-174.701 857.9437,-176.2264 867.091,-181.5721 868.4281,-174.701"/>
</g>
<!-- [root] data.aws_iam_policy_document.cloudwatch&#45;subscription&#45;&gt;[root] var.module_enabled -->
<g id="edge36" class="edge">
<title>[root] data.aws_iam_policy_document.cloudwatch&#45;subscription&#45;&gt;[root] var.module_enabled</title>
<path fill="none" stroke="#000000" d="M1323.7623,-217.3722C1380.7041,-208.9543 1435.4932,-196.8522 1457.8358,-180 1477.7918,-164.948 1489.2087,-138.431 1495.3847,-118.0659"/>
<polygon fill="#000000" stroke="#000000" points="1498.7778,-118.9276 1498.0821,-108.3556 1492.0332,-117.054 1498.7778,-118.9276"/>
</g>
<!-- [root] data.aws_iam_policy_document.cloudwatch&#45;subscription&#45;&gt;[root] var.log_group_subscription_target_arn -->
<g id="edge35" class="edge">
<title>[root] data.aws_iam_policy_document.cloudwatch&#45;subscription&#45;&gt;[root] var.log_group_subscription_target_arn</title>
<path fill="none" stroke="#000000" d="M1138.6859,-215.8314C1131.1642,-207.3694 1122.0793,-197.1489 1113.8555,-187.8971"/>
<polygon fill="#000000" stroke="#000000" points="1116.4628,-185.5621 1107.2032,-180.4133 1111.2309,-190.2127 1116.4628,-185.5621"/>
</g>
<!-- [root] data.aws_region.this&#45;&gt;[root] provider.aws -->
<g id="edge37" class="edge">
<title>[root] data.aws_region.this&#45;&gt;[root] provider.aws</title>
<path fill="none" stroke="#000000" d="M1359.1157,-143.8314C1345.7838,-133.6197 1329.1085,-120.8472 1315.3471,-110.3065"/>
<polygon fill="#000000" stroke="#000000" points="1317.2782,-107.3769 1307.2111,-104.0747 1313.0216,-112.934 1317.2782,-107.3769"/>
</g>
<!-- [root] var.environment -->
<g id="node25" class="node">
<title>[root] var.environment</title>
<ellipse fill="none" stroke="#000000" cx="1601.8358" cy="-18" rx="90.3377" ry="18"/>
<text text-anchor="middle" x="1601.8358" y="-13.8" font-family="Times,serif" font-size="14.00" fill="#000000">[root] var.environment</text>
</g>
<!-- [root] local.default_name&#45;&gt;[root] var.environment -->
<g id="edge38" class="edge">
<title>[root] local.default_name&#45;&gt;[root] var.environment</title>
<path fill="none" stroke="#000000" d="M1706.3687,-72.937C1687.4303,-62.984 1663.3549,-50.3312 1643.0838,-39.6778"/>
<polygon fill="#000000" stroke="#000000" points="1644.5501,-36.4945 1634.0699,-34.9405 1641.2936,-42.6909 1644.5501,-36.4945"/>
</g>
<!-- [root] var.project -->
<g id="node26" class="node">
<title>[root] var.project</title>
<ellipse fill="none" stroke="#000000" cx="1314.8358" cy="-18" rx="70.0495" ry="18"/>
<text text-anchor="middle" x="1314.8358" y="-13.8" font-family="Times,serif" font-size="14.00" fill="#000000">[root] var.project</text>
</g>
<!-- [root] local.default_name&#45;&gt;[root] var.project -->
<g id="edge39" class="edge">
<title>[root] local.default_name&#45;&gt;[root] var.project</title>
<path fill="none" stroke="#000000" d="M1665.9476,-77.6228C1586.7512,-64.1743 1461.1822,-42.8513 1383.6294,-29.6819"/>
<polygon fill="#000000" stroke="#000000" points="1383.9273,-26.1825 1373.4824,-27.9589 1382.7553,-33.0837 1383.9273,-26.1825"/>
</g>
<!-- [root] local.default_tags&#45;&gt;[root] var.environment -->
<g id="edge40" class="edge">
<title>[root] local.default_tags&#45;&gt;[root] var.environment</title>
<path fill="none" stroke="#000000" d="M1166.1448,-77.6316C1177.7171,-75.6735 1189.607,-73.7272 1200.8358,-72 1308.699,-55.4091 1433.3257,-39.0679 1514.6463,-28.7834"/>
<polygon fill="#000000" stroke="#000000" points="1515.355,-32.2218 1524.8382,-27.4975 1514.4787,-25.2769 1515.355,-32.2218"/>
</g>
<!-- [root] local.default_tags&#45;&gt;[root] var.project -->
<g id="edge41" class="edge">
<title>[root] local.default_tags&#45;&gt;[root] var.project</title>
<path fill="none" stroke="#000000" d="M1144.1386,-74.3771C1178.8212,-62.9223 1225.9301,-47.3634 1261.8728,-35.4924"/>
<polygon fill="#000000" stroke="#000000" points="1263.297,-38.708 1271.6948,-32.2484 1261.1016,-32.0612 1263.297,-38.708"/>
</g>
<!-- [root] meta.count&#45;boundary (count boundary fixup) -->
<g id="node27" class="node">
<title>[root] meta.count&#45;boundary (count boundary fixup)</title>
<ellipse fill="none" stroke="#000000" cx="919.8358" cy="-594" rx="191.6931" ry="18"/>
<text text-anchor="middle" x="919.8358" y="-589.8" font-family="Times,serif" font-size="14.00" fill="#000000">[root] meta.count&#45;boundary (count boundary fixup)</text>
</g>
<!-- [root] meta.count&#45;boundary (count boundary fixup)&#45;&gt;[root] aws_cloudwatch_log_subscription_filter.cloudwatch -->
<g id="edge42" class="edge">
<title>[root] meta.count&#45;boundary (count boundary fixup)&#45;&gt;[root] aws_cloudwatch_log_subscription_filter.cloudwatch</title>
<path fill="none" stroke="#000000" d="M947.628,-576.0535C987.69,-550.1839 1061.7278,-502.3747 1106.2099,-473.6509"/>
<polygon fill="#000000" stroke="#000000" points="1108.1913,-476.5377 1114.6934,-468.1727 1104.3939,-470.6572 1108.1913,-476.5377"/>
</g>
<!-- [root] meta.count&#45;boundary (count boundary fixup)&#45;&gt;[root] aws_iam_role_policy_attachment.cloudwatch -->
<g id="edge43" class="edge">
<title>[root] meta.count&#45;boundary (count boundary fixup)&#45;&gt;[root] aws_iam_role_policy_attachment.cloudwatch</title>
<path fill="none" stroke="#000000" d="M1022.2677,-578.7307C1095.0303,-567.8841 1193.3428,-553.2288 1271.8161,-541.5309"/>
<polygon fill="#000000" stroke="#000000" points="1272.398,-544.9829 1281.7726,-540.0467 1271.3658,-538.0594 1272.398,-544.9829"/>
</g>
<!-- [root] meta.count&#45;boundary (count boundary fixup)&#45;&gt;[root] aws_iam_role_policy_attachment.cloudwatch&#45;subscription -->
<g id="edge44" class="edge">
<title>[root] meta.count&#45;boundary (count boundary fixup)&#45;&gt;[root] aws_iam_role_policy_attachment.cloudwatch&#45;subscription</title>
<path fill="none" stroke="#000000" d="M976.7807,-576.7321C1043.5875,-556.9658 1157.932,-524.6633 1257.8358,-504 1364.3211,-481.9755 1399.0143,-508.7335 1499.8358,-468 1537.6808,-452.71 1574.9574,-423.8973 1599.0269,-402.9813"/>
<polygon fill="#000000" stroke="#000000" points="1601.4959,-405.4701 1606.665,-396.2218 1596.8568,-400.2281 1601.4959,-405.4701"/>
</g>
<!-- [root] output.cloudtrail_arn -->
<g id="node28" class="node">
<title>[root] output.cloudtrail_arn</title>
<ellipse fill="none" stroke="#000000" cx="496.8358" cy="-522" rx="106.7337" ry="18"/>
<text text-anchor="middle" x="496.8358" y="-517.8" font-family="Times,serif" font-size="14.00" fill="#000000">[root] output.cloudtrail_arn</text>
</g>
<!-- [root] meta.count&#45;boundary (count boundary fixup)&#45;&gt;[root] output.cloudtrail_arn -->
<g id="edge45" class="edge">
<title>[root] meta.count&#45;boundary (count boundary fixup)&#45;&gt;[root] output.cloudtrail_arn</title>
<path fill="none" stroke="#000000" d="M827.0067,-578.1993C754.1064,-565.7907 653.395,-548.6484 582.4252,-536.5684"/>
<polygon fill="#000000" stroke="#000000" points="582.6224,-533.0517 572.1769,-534.824 581.4478,-539.9525 582.6224,-533.0517"/>
</g>
<!-- [root] output.cloudtrail_name -->
<g id="node29" class="node">
<title>[root] output.cloudtrail_name</title>
<ellipse fill="none" stroke="#000000" cx="736.8358" cy="-522" rx="114.9519" ry="18"/>
<text text-anchor="middle" x="736.8358" y="-517.8" font-family="Times,serif" font-size="14.00" fill="#000000">[root] output.cloudtrail_name</text>
</g>
<!-- [root] meta.count&#45;boundary (count boundary fixup)&#45;&gt;[root] output.cloudtrail_name -->
<g id="edge46" class="edge">
<title>[root] meta.count&#45;boundary (count boundary fixup)&#45;&gt;[root] output.cloudtrail_name</title>
<path fill="none" stroke="#000000" d="M875.069,-576.3868C849.0391,-566.1456 816.1118,-553.1905 788.9237,-542.4936"/>
<polygon fill="#000000" stroke="#000000" points="790.1542,-539.2166 779.567,-538.8123 787.5913,-545.7306 790.1542,-539.2166"/>
</g>
<!-- [root] output.cloudwatch_log_group_arn -->
<g id="node30" class="node">
<title>[root] output.cloudwatch_log_group_arn</title>
<ellipse fill="none" stroke="#000000" cx="921.8358" cy="-378" rx="154.534" ry="18"/>
<text text-anchor="middle" x="921.8358" y="-373.8" font-family="Times,serif" font-size="14.00" fill="#000000">[root] output.cloudwatch_log_group_arn</text>
</g>
<!-- [root] meta.count&#45;boundary (count boundary fixup)&#45;&gt;[root] output.cloudwatch_log_group_arn -->
<g id="edge47" class="edge">
<title>[root] meta.count&#45;boundary (count boundary fixup)&#45;&gt;[root] output.cloudwatch_log_group_arn</title>
<path fill="none" stroke="#000000" d="M925.6796,-575.9499C934.6068,-545.9547 949.7167,-483.9973 940.8358,-432 939.337,-423.2245 936.5608,-413.9785 933.5846,-405.6659"/>
<polygon fill="#000000" stroke="#000000" points="936.7631,-404.1782 929.9275,-396.0835 930.2232,-406.6742 936.7631,-404.1782"/>
</g>
<!-- [root] output.cloudwatch_log_group_name -->
<g id="node31" class="node">
<title>[root] output.cloudwatch_log_group_name</title>
<ellipse fill="none" stroke="#000000" cx="769.8358" cy="-450" rx="162.252" ry="18"/>
<text text-anchor="middle" x="769.8358" y="-445.8" font-family="Times,serif" font-size="14.00" fill="#000000">[root] output.cloudwatch_log_group_name</text>
</g>
<!-- [root] meta.count&#45;boundary (count boundary fixup)&#45;&gt;[root] output.cloudwatch_log_group_name -->
<g id="edge48" class="edge">
<title>[root] meta.count&#45;boundary (count boundary fixup)&#45;&gt;[root] output.cloudwatch_log_group_name</title>
<path fill="none" stroke="#000000" d="M911.0331,-575.6886C900.9661,-556.1565 882.9808,-525.1763 860.8358,-504 848.0813,-491.8034 832.0854,-481.1566 817.0766,-472.6138"/>
<polygon fill="#000000" stroke="#000000" points="818.3468,-469.3183 807.8969,-467.5716 814.9767,-475.4537 818.3468,-469.3183"/>
</g>
<!-- [root] output.s3_bucket_arn -->
<g id="node32" class="node">
<title>[root] output.s3_bucket_arn</title>
<ellipse fill="none" stroke="#000000" cx="108.8358" cy="-378" rx="108.6719" ry="18"/>
<text text-anchor="middle" x="108.8358" y="-373.8" font-family="Times,serif" font-size="14.00" fill="#000000">[root] output.s3_bucket_arn</text>
</g>
<!-- [root] meta.count&#45;boundary (count boundary fixup)&#45;&gt;[root] output.s3_bucket_arn -->
<g id="edge49" class="edge">
<title>[root] meta.count&#45;boundary (count boundary fixup)&#45;&gt;[root] output.s3_bucket_arn</title>
<path fill="none" stroke="#000000" d="M740.8861,-587.4978C514.376,-578.4349 150.7633,-560.7603 128.8358,-540 92.7811,-505.8645 96.7098,-442.5731 102.7809,-406.0231"/>
<polygon fill="#000000" stroke="#000000" points="106.2515,-406.5008 104.605,-396.0347 99.3654,-405.2432 106.2515,-406.5008"/>
</g>
<!-- [root] output.s3_bucket_name -->
<g id="node33" class="node">
<title>[root] output.s3_bucket_name</title>
<ellipse fill="none" stroke="#000000" cx="254.8358" cy="-522" rx="116.8899" ry="18"/>
<text text-anchor="middle" x="254.8358" y="-517.8" font-family="Times,serif" font-size="14.00" fill="#000000">[root] output.s3_bucket_name</text>
</g>
<!-- [root] meta.count&#45;boundary (count boundary fixup)&#45;&gt;[root] output.s3_bucket_name -->
<g id="edge50" class="edge">
<title>[root] meta.count&#45;boundary (count boundary fixup)&#45;&gt;[root] output.s3_bucket_name</title>
<path fill="none" stroke="#000000" d="M780.3413,-581.6472C671.414,-571.6093 516.3226,-556.4571 380.8358,-540 370.6125,-538.7582 359.9355,-537.372 349.3089,-535.9351"/>
<polygon fill="#000000" stroke="#000000" points="349.5346,-532.4334 339.1523,-534.5449 348.5853,-539.3688 349.5346,-532.4334"/>
</g>
<!-- [root] output.cloudtrail_arn&#45;&gt;[root] aws_cloudtrail.s3 -->
<g id="edge51" class="edge">
<title>[root] output.cloudtrail_arn&#45;&gt;[root] aws_cloudtrail.s3</title>
<path fill="none" stroke="#000000" d="M457.9162,-505.1192C435.2436,-495.2853 406.3889,-482.77 381.907,-472.1513"/>
<polygon fill="#000000" stroke="#000000" points="382.9803,-468.8019 372.4134,-468.0336 380.1949,-475.2239 382.9803,-468.8019"/>
</g>
<!-- [root] output.cloudtrail_arn&#45;&gt;[root] aws_cloudtrail.s3&#45;cloudwatch -->
<g id="edge52" class="edge">
<title>[root] output.cloudtrail_arn&#45;&gt;[root] aws_cloudtrail.s3&#45;cloudwatch</title>
<path fill="none" stroke="#000000" d="M497.0882,-503.8314C497.1951,-496.131 497.3223,-486.9743 497.4412,-478.4166"/>
<polygon fill="#000000" stroke="#000000" points="500.9408,-478.4609 497.5801,-468.4133 493.9415,-478.3637 500.9408,-478.4609"/>
</g>
<!-- [root] output.cloudtrail_name&#45;&gt;[root] aws_cloudtrail.s3 -->
<g id="edge53" class="edge">
<title>[root] output.cloudtrail_name&#45;&gt;[root] aws_cloudtrail.s3</title>
<path fill="none" stroke="#000000" d="M652.5112,-509.6807C572.9078,-497.8686 458.1457,-480.3241 398.4717,-468.2008"/>
<polygon fill="#000000" stroke="#000000" points="398.8435,-464.7027 388.3383,-466.0781 397.4083,-471.5541 398.8435,-464.7027"/>
</g>
<!-- [root] output.cloudtrail_name&#45;&gt;[root] aws_cloudtrail.s3&#45;cloudwatch -->
<g id="edge54" class="edge">
<title>[root] output.cloudtrail_name&#45;&gt;[root] aws_cloudtrail.s3&#45;cloudwatch</title>
<path fill="none" stroke="#000000" d="M683.794,-506.0209C649.5827,-495.7145 604.7159,-482.1982 567.6247,-471.0242"/>
<polygon fill="#000000" stroke="#000000" points="568.465,-467.6221 557.8805,-468.0888 566.4458,-474.3246 568.465,-467.6221"/>
</g>
<!-- [root] output.cloudwatch_log_group_arn&#45;&gt;[root] aws_cloudwatch_log_group.cloudwatch -->
<g id="edge55" class="edge">
<title>[root] output.cloudwatch_log_group_arn&#45;&gt;[root] aws_cloudwatch_log_group.cloudwatch</title>
<path fill="none" stroke="#000000" d="M921.5835,-359.8314C921.4765,-352.131 921.3494,-342.9743 921.2305,-334.4166"/>
<polygon fill="#000000" stroke="#000000" points="924.7302,-334.3637 921.0916,-324.4133 917.7309,-334.4609 924.7302,-334.3637"/>
</g>
<!-- [root] output.cloudwatch_log_group_name&#45;&gt;[root] aws_cloudwatch_log_group.cloudwatch -->
<g id="edge56" class="edge">
<title>[root] output.cloudwatch_log_group_name&#45;&gt;[root] aws_cloudwatch_log_group.cloudwatch</title>
<path fill="none" stroke="#000000" d="M760.5926,-431.9614C751.9952,-412.3786 742.6084,-381.0859 757.8358,-360 767.0492,-347.242 796.3871,-335.8225 827.6831,-326.8075"/>
<polygon fill="#000000" stroke="#000000" points="828.7456,-330.1448 837.4384,-324.0881 826.8659,-323.4019 828.7456,-330.1448"/>
</g>
<!-- [root] output.s3_bucket_arn&#45;&gt;[root] aws_s3_bucket.this -->
<g id="edge57" class="edge">
<title>[root] output.s3_bucket_arn&#45;&gt;[root] aws_s3_bucket.this</title>
<path fill="none" stroke="#000000" d="M116.9682,-359.8809C133.3495,-325.645 173.7761,-251.6943 231.8358,-216 268.1613,-193.6676 378.7696,-177.8065 453.7335,-169.2781"/>
<polygon fill="#000000" stroke="#000000" points="454.5139,-172.7127 464.0632,-168.1234 453.7362,-165.756 454.5139,-172.7127"/>
</g>
<!-- [root] output.s3_bucket_name&#45;&gt;[root] aws_s3_bucket.this -->
<g id="edge58" class="edge">
<title>[root] output.s3_bucket_name&#45;&gt;[root] aws_s3_bucket.this</title>
<path fill="none" stroke="#000000" d="M252.971,-503.8374C250.3349,-476.55 245.8358,-423.3383 245.8358,-378 245.8358,-378 245.8358,-378 245.8358,-306 245.8358,-265.1184 235.8589,-244.8383 264.8358,-216 291.0196,-189.9415 385.8357,-175.4168 453.874,-168.154"/>
<polygon fill="#000000" stroke="#000000" points="454.5413,-171.6037 464.1276,-167.0923 453.8203,-164.6409 454.5413,-171.6037"/>
</g>
<!-- [root] provider.aws (close) -->
<g id="node34" class="node">
<title>[root] provider.aws (close)</title>
<ellipse fill="none" stroke="#000000" cx="1234.8358" cy="-594" rx="104.3276" ry="18"/>
<text text-anchor="middle" x="1234.8358" y="-589.8" font-family="Times,serif" font-size="14.00" fill="#000000">[root] provider.aws (close)</text>
</g>
<!-- [root] provider.aws (close)&#45;&gt;[root] aws_cloudtrail.s3 -->
<g id="edge59" class="edge">
<title>[root] provider.aws (close)&#45;&gt;[root] aws_cloudtrail.s3</title>
<path fill="none" stroke="#000000" d="M1157.562,-581.8026C1057.0737,-565.9353 894.2009,-540.1961 893.8358,-540 874.7149,-529.7285 880.3504,-513.5023 860.8358,-504 770.5765,-460.0497 514.3511,-484.1669 398.3923,-467.9369"/>
<polygon fill="#000000" stroke="#000000" points="398.7058,-464.4434 388.2847,-466.3541 397.6228,-471.3591 398.7058,-464.4434"/>
</g>
<!-- [root] provider.aws (close)&#45;&gt;[root] aws_cloudtrail.s3&#45;cloudwatch -->
<g id="edge60" class="edge">
<title>[root] provider.aws (close)&#45;&gt;[root] aws_cloudtrail.s3&#45;cloudwatch</title>
<path fill="none" stroke="#000000" d="M1183.922,-578.2259C1117.7061,-558.2527 998.161,-524.0356 893.8358,-504 767.2893,-479.6968 731.2073,-487.1992 599.5267,-468.0442"/>
<polygon fill="#000000" stroke="#000000" points="599.8627,-464.5559 589.4582,-466.5551 598.8385,-471.4806 599.8627,-464.5559"/>
</g>
<!-- [root] provider.aws (close)&#45;&gt;[root] aws_cloudwatch_log_subscription_filter.cloudwatch -->
<g id="edge61" class="edge">
<title>[root] provider.aws (close)&#45;&gt;[root] aws_cloudwatch_log_subscription_filter.cloudwatch</title>
<path fill="none" stroke="#000000" d="M1223.37,-576.0535C1207.462,-551.154 1178.5686,-505.9295 1160.0607,-476.9606"/>
<polygon fill="#000000" stroke="#000000" points="1162.7796,-474.7153 1154.4462,-468.1727 1156.8807,-478.4841 1162.7796,-474.7153"/>
</g>
<!-- [root] provider.aws (close)&#45;&gt;[root] aws_iam_role_policy_attachment.cloudwatch -->
<g id="edge62" class="edge">
<title>[root] provider.aws (close)&#45;&gt;[root] aws_iam_role_policy_attachment.cloudwatch</title>
<path fill="none" stroke="#000000" d="M1273.8007,-577.3008C1296.8355,-567.4287 1326.2852,-554.8074 1351.2327,-544.1156"/>
<polygon fill="#000000" stroke="#000000" points="1352.7381,-547.2784 1360.5508,-540.1222 1349.9806,-540.8444 1352.7381,-547.2784"/>
</g>
<!-- [root] provider.aws (close)&#45;&gt;[root] aws_iam_role_policy_attachment.cloudwatch&#45;subscription -->
<g id="edge63" class="edge">
<title>[root] provider.aws (close)&#45;&gt;[root] aws_iam_role_policy_attachment.cloudwatch&#45;subscription</title>
<path fill="none" stroke="#000000" d="M1331.2731,-587.0036C1410.311,-579.5481 1514.3833,-565.2442 1547.8358,-540 1591.6046,-506.9708 1612.0325,-442.9942 1620.5434,-406.0919"/>
<polygon fill="#000000" stroke="#000000" points="1624.0306,-406.5252 1622.7265,-396.011 1617.1892,-405.0437 1624.0306,-406.5252"/>
</g>
<!-- [root] root -->
<g id="node35" class="node">
<title>[root] root</title>
<ellipse fill="none" stroke="#000000" cx="1076.8358" cy="-666" rx="46.8976" ry="18"/>
<text text-anchor="middle" x="1076.8358" y="-661.8" font-family="Times,serif" font-size="14.00" fill="#000000">[root] root</text>
</g>
<!-- [root] root&#45;&gt;[root] meta.count&#45;boundary (count boundary fixup) -->
<g id="edge64" class="edge">
<title>[root] root&#45;&gt;[root] meta.count&#45;boundary (count boundary fixup)</title>
<path fill="none" stroke="#000000" d="M1046.5647,-652.1177C1024.1851,-641.8544 993.267,-627.6754 967.5725,-615.892"/>
<polygon fill="#000000" stroke="#000000" points="968.9167,-612.658 958.368,-611.6708 965.9987,-619.0208 968.9167,-612.658"/>
</g>
<!-- [root] root&#45;&gt;[root] provider.aws (close) -->
<g id="edge65" class="edge">
<title>[root] root&#45;&gt;[root] provider.aws (close)</title>
<path fill="none" stroke="#000000" d="M1107.2998,-652.1177C1130.3011,-641.6361 1162.2649,-627.0703 1188.4383,-615.1432"/>
<polygon fill="#000000" stroke="#000000" points="1190.1435,-618.2125 1197.7918,-610.8808 1187.2408,-611.8427 1190.1435,-618.2125"/>
</g>
</g>
</svg>
